<svg width="81" height="28" viewBox="0 0 81 28" fill="none" xmlns="http://www.w3.org/2000/svg">
<path d="M6.07083 0.333143C6.32125 0.264846 6.78415 0.166195 7.09528 0.113075C7.40641 0.0599557 8.02108 0.0144245 8.46121 0.00683594C8.90135 0.00683594 9.56155 0.0523671 9.94098 0.113075C10.3204 0.173784 10.882 0.310377 11.1931 0.416617C11.5042 0.522856 11.9975 0.735335 12.2934 0.879517C12.5894 1.03129 13.0295 1.29689 13.2799 1.47142C13.5304 1.65355 14.0084 2.05574 14.3423 2.36687C14.6762 2.678 15.1467 3.18643 15.382 3.49756C15.6172 3.80869 15.9511 4.31712 16.118 4.62825C16.285 4.93938 16.5051 5.4554 16.6113 5.76653C16.7175 6.07766 16.8541 6.66198 16.9148 7.05658C16.9983 7.54225 17.0363 8.29351 17.0363 10.9267H11.0413V9.46215C11.0413 8.33146 11.0185 7.91409 10.9199 7.58778C10.8212 7.26147 10.6922 7.07176 10.328 6.70751C9.94857 6.3205 9.78162 6.21426 9.40978 6.10802C9.09106 6.01695 8.79511 5.9866 8.42327 6.00937C8.0059 6.03213 7.78583 6.10043 7.40641 6.30532C7.14081 6.4495 6.79932 6.69992 6.63997 6.86687C6.4882 7.03382 6.29089 7.36771 6.19983 7.60296C6.10877 7.84579 6.03288 8.09621 6.03288 8.15692C6.03288 8.25557 5.64587 8.27075 0 8.27075L0.0531197 7.64849C0.0834739 7.29942 0.189713 6.69233 0.295953 6.29773C0.394604 5.90313 0.584317 5.34157 0.720911 5.04562C0.849916 4.74967 1.14587 4.22606 1.38111 3.8694C1.61636 3.51274 2.1172 2.91324 2.49663 2.53382C2.87605 2.15439 3.46037 1.66114 3.79427 1.44107C4.12816 1.21341 4.67454 0.902283 5.00843 0.750512C5.34233 0.591153 5.8204 0.409028 6.07083 0.333143Z" fill="#088EE0"/>
<path d="M34.8693 8.11898V5.46299V2.807H40.4089V8.11898H34.8693Z" fill="#088EE0"/>
<path d="M46.2369 6.46468C46.2293 4.77243 46.2597 3.48997 46.2976 3.45962C46.3356 3.42926 46.5708 3.42168 46.8212 3.45203C47.0717 3.4748 47.4663 3.5355 47.6939 3.58103C47.9216 3.61898 48.3693 3.75557 48.6804 3.87699C48.9916 3.99082 49.4924 4.25641 49.7808 4.4613C50.0691 4.66619 50.5017 5.03803 50.7293 5.28087C50.957 5.53129 51.2757 5.93348 51.4275 6.1839C51.5793 6.43432 51.7917 6.89722 51.898 7.20835C51.9966 7.51948 52.1256 7.99756 52.1636 8.27075C52.2091 8.54393 52.247 8.90819 52.247 9.40903H46.2521L46.2369 6.46468Z" fill="#088EE0"/>
<path d="M0.295953 10.6232C0.189713 10.2286 0.0910624 9.58356 0.0682968 9.19655L0.0227656 8.49082L2.92917 8.53635C4.53035 8.5667 5.88111 8.59706 5.91906 8.60464C5.96459 8.61982 6.01771 8.79436 6.04047 8.99925C6.07083 9.20414 6.16948 9.52286 6.26054 9.71257C6.35919 9.90228 6.54132 10.1831 6.67032 10.35C6.80691 10.517 7.09528 10.7294 7.36088 10.8584C7.75548 11.0482 7.95278 11.0937 8.8027 11.1468C9.34907 11.1923 10.0093 11.2682 10.2825 11.3365C10.5556 11.3972 11.0337 11.5414 11.3449 11.6552C11.656 11.7615 12.2251 12.0119 12.597 12.2016C12.9764 12.3837 13.5 12.6797 13.7732 12.8542C14.0464 13.0288 14.4865 13.3778 14.7597 13.6358C15.0329 13.8863 15.4427 14.3643 15.6703 14.6906C15.8904 15.017 16.1788 15.5102 16.3002 15.7834C16.4216 16.0566 16.6037 16.5802 16.7024 16.9596C16.801 17.339 16.9148 17.931 16.9604 18.2876C16.9983 18.6443 17.0363 19.1148 17.0363 19.7294H11.0793L11.0261 19.2589C10.9958 18.9933 10.8895 18.6139 10.7833 18.4014C10.6847 18.1965 10.4494 17.8854 10.2673 17.7261C10.0927 17.5591 9.75126 17.339 9.52361 17.2404C9.18212 17.0886 8.90894 17.0431 8.08179 16.99C7.44435 16.9444 6.76897 16.8534 6.29848 16.732C5.85076 16.6257 5.2285 16.3905 4.78078 16.1704C4.36341 15.9655 3.80185 15.624 3.52867 15.4191C3.25548 15.2143 2.75464 14.7514 2.41315 14.3871C2.06408 14.0304 1.60118 13.4537 1.37352 13.1122C1.14587 12.7632 0.849916 12.2244 0.720911 11.9132C0.584317 11.6021 0.394604 11.0178 0.295953 10.6232Z" fill="#088EE0"/>
<path d="M52.6492 9.93264C52.6568 9.92505 53.0894 9.87952 53.613 9.8264C54.1366 9.77328 54.8196 9.72775 55.1307 9.72016C55.4418 9.72016 56.011 9.76569 56.3828 9.8264C56.7622 9.8871 57.3238 10.0237 57.6349 10.1299C57.946 10.2362 58.4469 10.4487 58.7352 10.5928C59.0312 10.7446 59.4865 11.0178 59.7597 11.2151C60.0329 11.4048 60.5489 11.8525 60.9056 12.2092C61.2622 12.5659 61.7631 13.1654 62.0059 13.5448C62.2563 13.9166 62.575 14.5009 62.7116 14.8348C62.8482 15.1687 63.0303 15.6999 63.1062 16.0111C63.1897 16.3222 63.2884 16.9369 63.3339 17.377C63.4022 17.9613 63.4022 18.3939 63.3339 19.0085C63.2884 19.4638 63.1897 20.1013 63.1062 20.4124C63.0303 20.7235 62.8482 21.2547 62.7116 21.5886C62.575 21.9225 62.2563 22.4992 62.0059 22.8787C61.7631 23.2505 61.2622 23.85 60.9056 24.2067C60.5489 24.5633 59.9494 25.0566 59.57 25.307C59.1981 25.5574 58.6138 25.8686 58.2799 26.0127C57.946 26.1493 57.4148 26.3315 57.1037 26.4073C56.7926 26.4908 56.2993 26.5895 56.0034 26.635C55.715 26.6729 55.3811 26.7109 55.0548 26.7109V20.9815L55.3356 20.936C55.4949 20.9132 55.7757 20.8222 55.9654 20.7311C56.1551 20.6476 56.4739 20.4276 56.6788 20.2455C56.8988 20.0482 57.1341 19.737 57.2631 19.4638C57.4528 19.0768 57.4831 18.9175 57.4831 18.4166C57.4831 18.0144 57.4376 17.7109 57.3314 17.4301C57.2479 17.2176 57.0582 16.8913 56.914 16.7092C56.7395 16.5043 56.4739 16.307 55.6239 15.8972L52.6265 15.8593V12.8998C52.6265 11.2682 52.6341 9.93264 52.6492 9.93264Z" fill="#088EE0"/>
<path d="M25.5734 9.98576C25.9907 9.91746 26.4688 9.84916 26.6357 9.84157C26.8027 9.8264 27.0076 9.81122 27.0911 9.81881C27.2428 9.8264 27.2428 9.87952 27.2428 15.6696L26.8255 15.7227C26.5978 15.7606 26.2411 15.8669 26.0287 15.9655C25.8238 16.0642 25.5126 16.2994 25.3533 16.4815C25.1863 16.6561 24.9663 16.9976 24.6627 17.6426L24.6248 26.7109H18.6298L18.6526 21.9832C18.6754 17.5212 18.6906 17.2252 18.8347 16.5802C18.9258 16.2008 19.1003 15.5861 19.2369 15.2143C19.3659 14.8348 19.6164 14.2733 19.7833 13.9621C19.9503 13.651 20.2766 13.1426 20.5118 12.8315C20.7546 12.5203 21.1492 12.0954 21.3997 11.8753C21.6501 11.6628 22.0067 11.382 22.1965 11.253C22.3862 11.124 22.758 10.9116 23.0312 10.775C23.3044 10.6384 23.8128 10.4335 24.1695 10.3197C24.5261 10.2058 25.156 10.0541 25.5734 9.98576Z" fill="#088EE0"/>
<path d="M34.8314 18.7809L34.8541 14.2809L34.8769 9.78845H40.7959L40.8263 18.8568L41.0767 19.3728C41.2361 19.7067 41.4334 19.9723 41.6459 20.1392C41.8204 20.2834 42.1012 20.4579 42.2681 20.5338C42.4351 20.6021 42.7462 20.678 43.3305 20.7539L43.3685 26.7488L42.6703 26.6881C42.2833 26.6502 41.6383 26.5439 41.2437 26.4377C40.8339 26.3315 40.1661 26.081 39.688 25.8458C39.2327 25.6181 38.618 25.2463 37.7909 24.6089L37.2597 25.0111C36.9713 25.2387 36.3567 25.6105 35.8938 25.8382C35.3853 26.0962 34.7782 26.3315 34.3381 26.4453C33.9435 26.5439 33.2985 26.6502 32.2133 26.7488V23.8424C32.2133 20.9967 32.2133 20.9436 32.3651 20.9436C32.4486 20.9436 32.7142 20.8677 32.957 20.7767C33.2757 20.6552 33.5185 20.4883 33.8904 20.1164C34.1636 19.8433 34.4899 19.4259 34.8314 18.7809Z" fill="#088EE0"/>
<path d="M46.2369 14.4099C46.2445 11.974 46.2673 9.93264 46.2901 9.87952C46.3128 9.80363 46.9882 9.78087 52.2546 9.78087L52.285 18.925L52.4899 19.3424C52.5961 19.5777 52.8314 19.8888 52.9983 20.0482C53.1728 20.2075 53.4536 20.4048 53.6282 20.4959C53.8103 20.5793 54.1366 20.678 54.7513 20.7463V26.7412L54.129 26.6881C53.7799 26.6578 53.2108 26.5591 52.8541 26.4756C52.4975 26.3922 51.9511 26.2176 51.64 26.0886C51.3288 25.9596 50.828 25.7168 50.5396 25.5498C50.2437 25.3753 49.8263 25.0869 49.2116 24.5785L48.8094 24.9048C48.597 25.0869 48.2099 25.3525 47.9595 25.5119C47.7091 25.6637 47.2614 25.8989 46.973 26.0279C46.6771 26.1645 46.1307 26.3466 45.7589 26.4453C45.3794 26.5439 44.7572 26.6502 43.672 26.7412V20.974L44.0666 20.8753C44.2867 20.8222 44.6357 20.6704 44.8406 20.5338C45.0455 20.4048 45.3567 20.1316 45.5236 19.9419C45.6981 19.7446 45.9182 19.4183 46.2142 18.8492L46.2369 14.4099Z" fill="#088EE0"/>
<path d="M27.4325 15.8517L27.4401 12.8846L27.4553 9.91746L28.1079 9.9554C28.4646 9.97817 28.9654 10.0541 29.2159 10.1223C29.4663 10.1906 29.9443 10.3728 30.2782 10.5397C30.6121 10.7067 31.1054 11.0178 31.3786 11.2455C31.6518 11.4655 32.0312 11.8525 32.2209 12.103C32.4106 12.3534 32.6838 12.7783 32.8204 13.0439C32.957 13.3171 33.1315 13.7952 33.2074 14.1063C33.2909 14.425 33.3744 14.9411 33.4654 15.8593L27.4325 15.8517Z" fill="#088EE0"/>
<path d="M64.0017 26.9309V18.4318V9.93264H69.9283L69.9587 18.925L70.156 19.3424C70.2622 19.5701 70.4899 19.9116 70.6568 20.1013C70.8314 20.291 71.1501 20.549 71.3777 20.6704C71.742 20.8753 71.8558 20.8981 72.425 20.8981C72.9637 20.8981 73.1459 20.8677 73.4874 20.7008C73.7226 20.5945 74.0868 20.3289 74.3069 20.1164C74.6332 19.7901 74.7319 19.6308 74.8609 19.2134C75.0051 18.7202 75.0126 18.5001 75.0051 9.93264H81L80.9621 26.893L80.355 26.8627C80.0211 26.8551 79.5126 26.7792 79.2167 26.7033C78.9283 26.6274 78.4654 26.4605 78.1922 26.3239C77.9266 26.1873 77.5472 25.9748 77.3575 25.8458C77.0236 25.6181 77.016 25.6181 76.7884 25.7547C76.6669 25.8306 76.3406 25.9976 76.0675 26.1417C75.8019 26.2783 75.2858 26.4756 74.9292 26.5743C74.5801 26.6805 73.9275 26.8095 73.4874 26.8551C73.0245 26.9082 72.4098 26.9234 72.0076 26.893C71.6357 26.8702 71.0894 26.8019 70.7934 26.7412C70.5051 26.6881 70.0422 26.5667 69.769 26.4756C69.5034 26.3846 68.9646 26.1493 67.887 25.603L67.6366 25.823C67.4924 25.9444 67.1509 26.1569 66.8701 26.2935C66.5894 26.4377 66.0734 26.6198 65.7319 26.6957C65.3904 26.7792 64.8592 26.8627 64.0017 26.9309Z" fill="#088EE0"/>
<path d="M0.77403 17.3618C1.18381 17.3542 2.10961 17.3239 2.83811 17.3011C3.5742 17.2707 4.59106 17.2404 6.02529 17.2176V18.6822C6.02529 19.7294 6.05565 20.2455 6.13912 20.5186C6.20742 20.7691 6.36678 21.0347 6.60961 21.3078C6.8145 21.5279 7.1484 21.7935 7.35329 21.8922C7.56577 21.9908 7.95278 22.0971 8.22597 22.1274C8.59022 22.1578 8.83305 22.135 9.13659 22.0439C9.37184 21.968 9.74368 21.7859 9.97133 21.6342C10.2142 21.4748 10.4949 21.194 10.6391 20.974C10.7757 20.7691 10.9275 20.4124 11.0717 19.7977H17.0287L17.0363 20.124C17.0363 20.2986 16.9831 20.7311 16.9224 21.0878C16.8617 21.4444 16.7251 21.9756 16.6265 22.264C16.5278 22.56 16.3078 23.0684 16.1332 23.4023C15.9587 23.7362 15.6476 24.2294 15.4503 24.5026C15.2454 24.7758 14.828 25.2463 14.5169 25.5574C14.2133 25.861 13.6138 26.339 13.1965 26.6198C12.7791 26.893 12.1265 27.2497 11.7395 27.409C11.3524 27.5608 10.6922 27.7581 10.2749 27.8416C9.75126 27.9478 9.21248 27.9933 8.52951 27.9933C7.84654 27.9933 7.31535 27.9478 6.78415 27.8416C6.36678 27.7581 5.71416 27.5608 5.32715 27.409C4.94013 27.2497 4.27993 26.9006 3.86256 26.6198C3.44519 26.3466 2.81535 25.8306 2.45868 25.4815C2.08685 25.1173 1.60877 24.5406 1.33558 24.1232C1.07757 23.7286 0.758853 23.1291 0.629848 22.7952C0.500843 22.4613 0.349073 21.9984 0.295953 21.7707C0.235245 21.5431 0.151771 21.1181 0.113828 20.8222C0.0682968 20.5338 0.0379427 19.6308 0.0303541 17.3694L0.77403 17.3618Z" fill="#088EE0"/>
</svg>
